<svg version="1.1" xmlns="http://www.w3.org/2000/svg" xmlns:xlink="http://www.w3.org/1999/xlink" width="193.6319" height="71.6205" viewBox="0,0,193.6319,71.6205"><g transform="translate(-143.18405,-144.18975)"><g data-paper-data="{&quot;isPaintingLayer&quot;:true}" fill-rule="nonzero" stroke-linejoin="miter" stroke-miterlimit="10" stroke-dasharray="" stroke-dashoffset="0" style="mix-blend-mode: normal"><path d="M143.18405,215.81025v-71.6205h193.6319v71.6205z" fill-opacity="0.00806" fill="#ffffff" stroke="none" stroke-width="0" stroke-linecap="butt"/><path d="M143.18405,214.78663l27.86891,-68.58265h3.07087l27.67081,68.58265h-3.53317l-26.48208,-65.74296h1.51894l-26.68023,65.74296zM243.89774,214.78663l-17.96293,-22.71781l-0.89154,-0.72643l-19.48183,-23.2131h4.06149l17.23646,21.00076l0.92458,0.59436l20.17526,25.06222zM204.73594,214.78663l20.50548,-25.06222l1.41986,2.54255l-17.96293,22.51967zM227.6849,191.34239l-1.4529,-2.31141l16.97235,-20.90169h3.92938zM259.22366,214.78663v-46.65734h3.13691v46.65734zM260.74256,156.47322c-0.88054,0 -1.62897,-0.34126 -2.24533,-1.02366c-0.59436,-0.68239 -0.89158,-1.46386 -0.89158,-2.3444c0,-0.94658 0.29722,-1.71704 0.89158,-2.3114c0.61636,-0.61636 1.36479,-0.92458 2.24533,-0.92458c0.94658,0 1.73905,0.30822 2.37744,0.92458c0.6384,0.59436 0.95762,1.36483 0.95762,2.3114c0,0.88054 -0.31922,1.66201 -0.95762,2.3444c-0.6384,0.68239 -1.43087,1.02366 -2.37744,1.02366zM300.09672,215.81024c-4.66685,0 -8.84937,-1.06765 -12.54761,-3.20295c-3.67624,-2.1353 -6.582,-5.04107 -8.7173,-8.7173c-2.1133,-3.69823 -3.16995,-7.88075 -3.16995,-12.54761c0,-4.60081 1.02365,-8.7173 3.07088,-12.3495c2.06926,-3.65424 4.90899,-6.54897 8.51919,-8.68426c3.6322,-2.1353 7.71569,-3.20295 12.25043,-3.20295c4.18252,0 7.8808,0.93554 11.09475,2.80669c3.21395,1.84912 5.73446,4.43571 7.56158,7.75973c1.82712,3.30202 2.7407,7.12133 2.7407,11.45796c0,0.26414 -0.02204,0.68239 -0.06608,1.25476c-0.022,0.57236 -0.11003,1.29879 -0.26414,2.17933h-42.69493v-2.9388h40.6807l-0.92458,0.72643c0.28618,-4.00641 -0.31918,-7.52858 -1.81608,-10.56642c-1.4749,-3.03784 -3.62124,-5.41528 -6.43893,-7.13232c-2.79569,-1.73905 -6.13071,-2.60859 -10.00506,-2.60859c-4.05045,0 -7.61662,0.90258 -10.69849,2.70766c-3.05988,1.78308 -5.45936,4.24856 -7.1984,7.39647c-1.71705,3.14791 -2.57555,6.81319 -2.57555,10.99571c0,4.33663 0.89154,8.13394 2.67462,11.39192c1.80508,3.23599 4.3256,5.7675 7.56158,7.59462c3.25798,1.82712 7.04429,2.74066 11.35892,2.74066c3.25798,0 6.25179,-0.6054 8.98145,-1.81612c2.75166,-1.23276 5.07406,-3.07087 6.96722,-5.51435l2.1133,2.1463c-2.09126,2.50951 -4.74388,4.49074 -7.95783,5.94361c-3.21395,1.45287 -6.71407,2.17933 -10.50038,2.17933zM333.67904,214.78663v-70.59688h3.13691v70.59688z" fill="#ffffff" stroke="none" stroke-width="0" stroke-linecap="square"/><path d="M165.65653,184.71879h-8.94914h31.322" fill="none" stroke="#ffffff" stroke-width="3.5" stroke-linecap="round"/></g></g></svg>