<svg viewBox="0,0,63.65131,35.08887" height="35.08887" width="63.65131" xmlns:xlink="http://www.w3.org/1999/xlink" xmlns="http://www.w3.org/2000/svg" version="1.1"><g transform="translate(-208.17435,-162.45557)"><g style="mix-blend-mode: normal" stroke-dashoffset="0" stroke-dasharray="" stroke-miterlimit="10" stroke-linejoin="miter" fill-rule="nonzero" data-paper-data="{&quot;isPaintingLayer&quot;:true}"><path stroke-linecap="butt" stroke-width="0" stroke="#000000" fill="#ffffff" fill-opacity="0.00801" d="M209.12994,189.26263l-0.9556,-25.53294l23.81371,-1.27413l3.51695,7.38131l36.32065,0.58197l-13.24025,27.1256l-3.37385,-7.8165z"></path><path stroke-linecap="square" stroke-width="1" stroke="#ffffff" fill="#ffffff" d="M210.20115,177.44617v-0.99928h7.93821c1.14525,0 2.167,-0.2283 3.06523,-0.6849c0.89823,-0.46408 1.6056,-1.11905 2.12209,-1.96491c0.51649,-0.85333 0.77474,-1.8676 0.77474,-3.04279c0,-1.16772 -0.25826,-2.17824 -0.77474,-3.03156c-0.51649,-0.85333 -1.22385,-1.5083 -2.12209,-1.96491c-0.89823,-0.46408 -1.91998,-0.69613 -3.06523,-0.69613h-7.93821v-0.99928h8.10664c1.33239,0 2.51506,0.27696 3.54806,0.83088c1.04046,0.55392 1.86385,1.33239 2.47016,2.33543c0.61379,0.99556 0.9207,2.17075 0.9207,3.52559c0,1.36234 -0.30691,2.54502 -0.9207,3.54806c-0.60631,0.99556 -1.42969,1.77027 -2.47016,2.3242c-1.03299,0.54644 -2.21567,0.81966 -3.54806,0.81966zM209.65098,187.38297v-23.32059h1.10034v23.32059zM230.07467,187.38297v-24.00552h1.06666v24.00552zM243.80379,187.73104c-1.56444,0 -2.96419,-0.36302 -4.19928,-1.08911c-1.22759,-0.72608 -2.19696,-1.7104 -2.90808,-2.95298c-0.71112,-1.24257 -1.06666,-2.64232 -1.06666,-4.19928c0,-1.56444 0.35555,-2.97169 1.06666,-4.22175c0.71112,-1.25754 1.67673,-2.25309 2.89683,-2.98666c1.22011,-0.74103 2.60116,-1.11157 4.14314,-1.11157c1.21262,0 2.30548,0.22457 3.27858,0.67369c0.98057,0.44912 1.80023,1.08911 2.45893,1.91998c0.6587,0.82337 1.11157,1.81146 1.35858,2.96419v5.4119c-0.27696,1.15275 -0.74479,2.14829 -1.4035,2.98666c-0.65122,0.83836 -1.45591,1.48211 -2.41401,1.93123c-0.95065,0.44912 -2.02103,0.67369 -3.21122,0.67369zM243.93851,186.73175c1.97613,0 3.54806,-0.66245 4.71577,-1.98737c1.1752,-1.32491 1.76279,-3.07646 1.76279,-5.25471c0,-1.47462 -0.26948,-2.75836 -0.80842,-3.85121c-0.53894,-1.09286 -1.30244,-1.94245 -2.29052,-2.54877c-0.98805,-0.61379 -2.13705,-0.9207 -3.447,-0.9207c-1.38477,0 -2.61239,0.31812 -3.68279,0.95438c-1.06291,0.62878 -1.90503,1.48959 -2.52631,2.58244c-0.62128,1.09286 -0.93194,2.33916 -0.93194,3.73893c0,1.40725 0.31064,2.65731 0.93194,3.75016c0.62128,1.09286 1.47835,1.95742 2.57121,2.59368c1.09286,0.62878 2.32795,0.94315 3.70526,0.94315zM250.38341,187.38297v-4.24419l0.31439,-3.9298l-0.31439,-3.82874v-3.86245h1.0779v15.8652zM262.49181,187.38297l-7.17469,-15.8652h1.17895l6.62453,14.89959h-0.79718l6.92768,-14.89959h1.17895l-7.52276,15.8652zM258.56202,194.14225l3.79508,-7.79225l0.55017,1.03299l-3.21122,6.75926z"></path></g></g></svg>