<svg version="1.1" xmlns="http://www.w3.org/2000/svg" xmlns:xlink="http://www.w3.org/1999/xlink" width="235.00991" height="18.25462" viewBox="0,0,235.00991,18.25462"><g transform="translate(-122.49505,-170.87269)"><g data-paper-data="{&quot;isPaintingLayer&quot;:true}" fill="#ffffff" fill-rule="nonzero" stroke="none" stroke-width="1" stroke-linecap="butt" stroke-linejoin="miter" stroke-miterlimit="10" stroke-dasharray="" stroke-dashoffset="0" style="mix-blend-mode: normal"><path d="M134.09212,175.59741h-1.6644c-0.09843,-0.47874 -0.2707,-0.89931 -0.51678,-1.26172c-0.24161,-0.3624 -0.5369,-0.66664 -0.88589,-0.91272c-0.34451,-0.25055 -0.72706,-0.43847 -1.14762,-0.56376c-0.42058,-0.12527 -0.85905,-0.1879 -1.31541,-0.1879c-0.8322,0 -1.58609,0.21028 -2.2617,0.63085c-0.67112,0.42058 -1.20578,1.04024 -1.60398,1.85902c-0.39373,0.81878 -0.59059,1.82323 -0.59059,3.01336c0,1.19014 0.19686,2.19459 0.59059,3.01337c0.3982,0.81876 0.93287,1.43844 1.60398,1.85901c0.67561,0.42058 1.4295,0.63086 2.2617,0.63086c0.45636,0 0.89483,-0.06263 1.31541,-0.18792c0.42056,-0.12527 0.80311,-0.31095 1.14762,-0.55703c0.34898,-0.25055 0.64428,-0.55703 0.88589,-0.91945c0.24608,-0.36688 0.41834,-0.78746 0.51678,-1.26171h1.6644c-0.12528,0.70244 -0.35347,1.33107 -0.68455,1.88586c-0.33109,0.55479 -0.74271,1.02683 -1.23487,1.41608c-0.49216,0.38478 -1.04473,0.67784 -1.65769,0.87918c-0.60848,0.20134 -1.25949,0.302 -1.95298,0.302c-1.17224,0 -2.21472,-0.28635 -3.12744,-0.85905c-0.91274,-0.57268 -1.63084,-1.38699 -2.15432,-2.44289c-0.52348,-1.05591 -0.78522,-2.30868 -0.78522,-3.75832c0,-1.44963 0.26173,-2.70241 0.78522,-3.7583c0.52348,-1.0559 1.24158,-1.87021 2.15432,-2.44291c0.91272,-0.5727 1.9552,-0.85904 3.12744,-0.85904c0.6935,0 1.3445,0.10067 1.95298,0.302c0.61296,0.20134 1.16553,0.49663 1.65769,0.88589c0.49216,0.38478 0.90378,0.85456 1.23487,1.40937c0.33108,0.55032 0.55927,1.17895 0.68455,1.88586zM138.15075,171.3022v13.74467h-1.58386v-13.74467zM141.05173,185.04687v-10.3085h1.58389v10.3085zM141.85698,173.02029c-0.30868,0 -0.57484,-0.10514 -0.79864,-0.31544c-0.21923,-0.21028 -0.32884,-0.46307 -0.32884,-0.75837c0,-0.2953 0.10961,-0.54808 0.32884,-0.75837c0.22379,-0.21028 0.48995,-0.31542 0.79864,-0.31542c0.30884,0 0.5728,0.10514 0.79202,0.31542c0.22364,0.21028 0.33561,0.46307 0.33561,0.75837c0,0.2953 -0.11198,0.54808 -0.33561,0.75837c-0.21923,0.2103 -0.48318,0.31544 -0.79202,0.31544zM149.72429,185.26163c-0.96637,0 -1.79855,-0.22817 -2.49655,-0.68455c-0.698,-0.45636 -1.23489,-1.08499 -1.61066,-1.88586c-0.37593,-0.80087 -0.56382,-1.71585 -0.56382,-2.74491c0,-1.04695 0.19245,-1.97087 0.5772,-2.77175c0.38932,-0.80535 0.93061,-1.43397 1.62405,-1.88586c0.698,-0.45638 1.51239,-0.68455 2.443,-0.68455c0.72477,0 1.37805,0.13423 1.95966,0.40267c0.58161,0.26844 1.05818,0.64428 1.42955,1.12749c0.37136,0.48321 0.60177,1.04695 0.69123,1.69123h-1.58389c-0.1208,-0.46978 -0.38932,-0.88589 -0.80541,-1.24829c-0.41152,-0.36689 -0.96637,-0.55032 -1.66437,-0.55032c-0.61737,0 -1.15882,0.16107 -1.62405,0.48321c-0.46082,0.31766 -0.821,0.76731 -1.08055,1.34896c-0.25498,0.57717 -0.38255,1.255 -0.38255,2.03351c0,0.7964 0.12521,1.48991 0.37577,2.0805c0.25514,0.59059 0.61296,1.04919 1.07393,1.37581c0.46523,0.32661 1.01109,0.48991 1.63743,0.48991c0.41168,0 0.78525,-0.07158 1.12086,-0.21475c0.33546,-0.14318 0.61957,-0.34898 0.85234,-0.61743c0.23261,-0.26846 0.39814,-0.59059 0.49657,-0.96643h1.58389c-0.08945,0.60848 -0.31104,1.15657 -0.66445,1.64425c-0.349,0.48321 -0.81202,0.868 -1.38923,1.15435c-0.57264,0.28188 -1.2393,0.4228 -1.99998,0.4228zM157.56987,181.28857l-0.02693,-1.95969h0.32223l4.50991,-4.5905h1.95966l-4.80521,4.85895h-0.13418zM156.09339,185.04687v-13.74467h1.58373v13.74467zM162.6436,185.04687l-4.02689,-5.10057l1.12748,-1.10064l4.91278,6.20121zM172.46711,185.04687h-1.74484l5.0468,-13.74467h1.71807l5.04696,13.74467h-1.745l-4.10721,-11.57022h-0.10741zM173.1114,179.67786h7.03339v1.47648h-7.03339zM186.0441,178.84566v6.20121h-1.58389v-10.3085h1.53018v1.61069h0.13418c0.24159,-0.52347 0.60855,-0.94405 1.10071,-1.26171c0.49216,-0.32215 1.12748,-0.48321 1.90596,-0.48321c0.698,0 1.30875,0.14318 1.83209,0.42953c0.5235,0.28186 0.93077,0.71139 1.2215,1.28856c0.29089,0.57268 0.43625,1.29751 0.43625,2.17445v6.5502h-1.58389v-6.44282c0,-0.80982 -0.21025,-1.44068 -0.63091,-1.89257c-0.4205,-0.45638 -0.99771,-0.68455 -1.73146,-0.68455c-0.50555,0 -0.95739,0.10961 -1.35568,0.32884c-0.39373,0.21924 -0.70462,0.53914 -0.93282,0.95972c-0.2282,0.42056 -0.34223,0.93063 -0.34223,1.53017zM196.16637,188.91249c-0.26852,0 -0.50791,-0.02236 -0.71816,-0.06709c-0.21025,-0.04016 -0.35577,-0.08048 -0.43625,-0.1208l0.4027,-1.39584c0.38475,0.09843 0.72477,0.13418 1.02007,0.10725c0.2953,-0.02677 0.55705,-0.15875 0.78525,-0.39593c0.23261,-0.23261 0.44523,-0.61069 0.63752,-1.13417l0.2953,-0.80535l-3.81191,-10.36219h1.71807l2.84555,8.21458h0.10741l2.84555,-8.21458h1.71807l-4.37573,11.81183c-0.19686,0.5324 -0.44066,0.97306 -0.73155,1.32206c-0.29073,0.35357 -0.62855,0.61532 -1.01346,0.78525c-0.38018,0.17009 -0.80982,0.25498 -1.28843,0.25498zM208.00166,185.04687l-3.14084,-10.3085h1.66437l2.22818,7.89245h0.10725l2.20141,-7.89245h1.69114l2.17448,7.86559h0.10741l2.22818,-7.86559h1.66437l-3.14084,10.3085h-1.55711l-2.25496,-7.9193h-0.16111l-2.25496,7.9193zM222.60534,178.84566v6.20121h-1.58389v-13.74467h1.58389v5.04686h0.13418c0.24159,-0.53243 0.60414,-0.95523 1.08732,-1.26842c0.48759,-0.31768 1.13646,-0.47651 1.94627,-0.47651c0.70241,0 1.31757,0.14094 1.84548,0.4228c0.52807,0.2774 0.93739,0.70469 1.22827,1.28185c0.2953,0.5727 0.44286,1.30199 0.44286,2.18788v6.5502h-1.58389v-6.44282c0,-0.81878 -0.21246,-1.45186 -0.63752,-1.8993c-0.4205,-0.45189 -1.00448,-0.67783 -1.75162,-0.67783c-0.51893,0 -0.98432,0.10961 -1.396,0.32884c-0.40711,0.21924 -0.72918,0.53914 -0.96637,0.95972c-0.23261,0.42056 -0.349,0.93063 -0.349,1.53017zM236.50944,185.26163c-0.9933,0 -1.85005,-0.21923 -2.57041,-0.6577c-0.71595,-0.44294 -1.26843,-1.06039 -1.65775,-1.85232c-0.38475,-0.7964 -0.5772,-1.72256 -0.5772,-2.77846c0,-1.05591 0.19245,-1.98653 0.5772,-2.79189c0.38932,-0.80982 0.93061,-1.44068 1.62421,-1.89257c0.698,-0.45638 1.51223,-0.68455 2.44284,-0.68455c0.53689,0 1.06716,0.08949 1.59066,0.26844c0.52334,0.17897 0.99991,0.4698 1.42939,0.87247c0.42964,0.3982 0.77186,0.92616 1.02684,1.58386c0.25498,0.65771 0.38255,1.46753 0.38255,2.42949v0.67112h-7.94606v-1.3691h6.33539c0,-0.58163 -0.11639,-1.10064 -0.349,-1.557c-0.2282,-0.45638 -0.55484,-0.81654 -0.97991,-1.08051c-0.4205,-0.26399 -0.91723,-0.39596 -1.48987,-0.39596c-0.63091,0 -1.17662,0.15659 -1.63759,0.46978c-0.45625,0.30873 -0.80746,0.7114 -1.05362,1.20804c-0.246,0.49663 -0.36916,1.02906 -0.36916,1.59727v0.91274c0,0.77851 0.13434,1.43844 0.4027,1.97982c0.27293,0.5369 0.65107,0.94629 1.13425,1.22816c0.48318,0.2774 1.04464,0.41609 1.68452,0.41609c0.41609,0 0.79187,-0.05816 1.12748,-0.17448c0.34002,-0.12081 0.63311,-0.29977 0.87912,-0.5369c0.24616,-0.24161 0.43625,-0.54138 0.57043,-0.89931l1.53018,0.42951c-0.16096,0.51901 -0.43168,0.97537 -0.81202,1.3691c-0.38034,0.38925 -0.85014,0.6935 -1.40939,0.91274c-0.55925,0.21475 -1.1878,0.32213 -1.8858,0.32213zM243.18706,185.04687v-10.3085h1.53018v1.557h0.10741c0.18789,-0.51005 0.52791,-0.92392 1.02007,-1.24158c0.49216,-0.31768 1.047,-0.47651 1.66452,-0.47651c0.11623,0 0.26175,0.00224 0.43609,0.00671c0.1745,0.00447 0.30664,0.0112 0.39609,0.02014v1.61071c-0.0537,-0.01343 -0.1767,-0.03356 -0.36916,-0.06041c-0.18789,-0.03131 -0.38696,-0.04698 -0.59736,-0.04698c-0.50098,0 -0.94841,0.10514 -1.34214,0.31544c-0.38932,0.20581 -0.698,0.49216 -0.92621,0.85904c-0.22379,0.36242 -0.33561,0.77627 -0.33561,1.24158v6.52336zM254.22719,185.26163c-0.9933,0 -1.85005,-0.21923 -2.57041,-0.6577c-0.71595,-0.44294 -1.26843,-1.06039 -1.65775,-1.85232c-0.38475,-0.7964 -0.5772,-1.72256 -0.5772,-2.77846c0,-1.05591 0.19245,-1.98653 0.5772,-2.79189c0.38932,-0.80982 0.93061,-1.44068 1.62421,-1.89257c0.698,-0.45638 1.51223,-0.68455 2.44284,-0.68455c0.53689,0 1.06716,0.08949 1.59066,0.26844c0.52334,0.17897 0.99991,0.4698 1.42939,0.87247c0.42964,0.3982 0.77186,0.92616 1.02684,1.58386c0.25498,0.65771 0.38255,1.46753 0.38255,2.42949v0.67112h-7.94606v-1.3691h6.33539c0,-0.58163 -0.11639,-1.10064 -0.349,-1.557c-0.2282,-0.45638 -0.55484,-0.81654 -0.97991,-1.08051c-0.4205,-0.26399 -0.91723,-0.39596 -1.48987,-0.39596c-0.63091,0 -1.17662,0.15659 -1.63759,0.46978c-0.45625,0.30873 -0.80746,0.7114 -1.05362,1.20804c-0.246,0.49663 -0.36916,1.02906 -0.36916,1.59727v0.91274c0,0.77851 0.13434,1.43844 0.4027,1.97982c0.27293,0.5369 0.65107,0.94629 1.13425,1.22816c0.48318,0.2774 1.04464,0.41609 1.68452,0.41609c0.41609,0 0.79187,-0.05816 1.12748,-0.17448c0.34002,-0.12081 0.63311,-0.29977 0.87912,-0.5369c0.24616,-0.24161 0.43625,-0.54138 0.57043,-0.89931l1.53018,0.42951c-0.16096,0.51901 -0.43168,0.97537 -0.81202,1.3691c-0.38034,0.38925 -0.85014,0.6935 -1.40939,0.91274c-0.55925,0.21475 -1.1878,0.32213 -1.8858,0.32213zM270.70327,174.73837v1.34225h-5.3421v-1.34225zM266.91813,172.26861h1.58389v9.8253c0,0.44742 0.06489,0.78298 0.19466,1.00668c0.13418,0.21924 0.30427,0.36689 0.50996,0.44294c0.21041,0.0716 0.43184,0.10739 0.66445,0.10739c0.1745,0 0.31766,-0.00896 0.42964,-0.02685c0.11182,-0.02236 0.20127,-0.04027 0.26836,-0.05369l0.32223,1.42279c-0.10741,0.04027 -0.25734,0.08054 -0.44979,0.1208c-0.1923,0.04474 -0.43609,0.06712 -0.73139,0.06712c-0.44743,0 -0.88589,-0.0962 -1.31552,-0.28859c-0.42507,-0.19239 -0.77848,-0.48545 -1.06039,-0.87918c-0.27734,-0.39373 -0.41609,-0.89036 -0.41609,-1.4899zM277.16293,185.26163c-0.93061,0 -1.74721,-0.22146 -2.44962,-0.66441c-0.698,-0.44294 -1.24386,-1.06262 -1.63759,-1.85902c-0.38916,-0.7964 -0.58382,-1.72703 -0.58382,-2.79189c0,-1.07379 0.19466,-2.01115 0.58382,-2.81202c0.39373,-0.80087 0.93959,-1.42279 1.63759,-1.86573c0.70241,-0.44294 1.519,-0.66441 2.44962,-0.66441c0.93061,0 1.74453,0.22146 2.44221,0.66441c0.70241,0.44294 1.2489,1.06486 1.63791,1.86573c0.39373,0.80087 0.59059,1.73823 0.59059,2.81202c0,1.06486 -0.19686,1.99549 -0.59059,2.79189c-0.389,0.7964 -0.9355,1.41608 -1.63791,1.85902c-0.69769,0.44294 -1.5116,0.66441 -2.44221,0.66441zM277.16293,183.83884c0.70698,0 1.28859,-0.18119 1.74453,-0.54361c0.45672,-0.3624 0.79533,-0.83891 1.01424,-1.4295c0.21891,-0.59059 0.32916,-1.2304 0.32916,-1.91942c0,-0.68902 -0.11024,-1.33107 -0.32916,-1.92613c-0.21891,-0.59506 -0.55752,-1.07604 -1.01424,-1.44292c-0.45594,-0.36689 -1.03755,-0.55032 -1.74453,-0.55032c-0.70698,0 -1.28859,0.18343 -1.745,0.55032c-0.45625,0.36688 -0.79407,0.84785 -1.0133,1.44292c-0.21923,0.59506 -0.32884,1.23711 -0.32884,1.92613c0,0.68902 0.10961,1.32883 0.32884,1.91942c0.21923,0.59059 0.55705,1.0671 1.0133,1.4295c0.45641,0.36242 1.03802,0.54361 1.745,0.54361zM293.72737,189.12731c-0.76383,0 -1.42214,-0.09843 -1.97179,-0.2953c-0.55122,-0.19245 -1.00952,-0.44743 -1.37647,-0.76509c-0.36223,-0.31309 -0.65044,-0.64871 -0.8662,-1.00668l1.2615,-0.88587c0.14332,0.18792 0.32443,0.40267 0.54492,0.64428c0.21891,0.246 0.51815,0.45861 0.89927,0.63752c0.38428,0.18348 0.88825,0.27514 1.50876,0.27514c0.83313,0 1.51979,-0.20127 2.06156,-0.60398c0.54019,-0.4027 0.81108,-1.0335 0.81108,-1.89254v-2.09392h-0.13387c-0.11654,0.18792 -0.28191,0.42058 -0.4961,0.69797c-0.21104,0.27293 -0.515,0.51678 -0.91345,0.73153c-0.39373,0.2103 -0.92605,0.31544 -1.59696,0.31544c-0.83155,0 -1.57964,-0.19686 -2.2411,-0.59059c-0.65831,-0.39373 -1.17961,-0.96643 -1.56389,-1.71809c-0.38113,-0.75166 -0.57012,-1.6644 -0.57012,-2.7382c0,-1.0559 0.18426,-1.97535 0.55594,-2.75833c0.37168,-0.78746 0.88825,-1.39594 1.55129,-1.82546c0.66146,-0.434 1.42687,-0.65099 2.29465,-0.65099c0.67091,0 1.20323,0.11185 1.59696,0.33557c0.39845,0.21923 0.70241,0.46978 0.91345,0.75166c0.21419,0.2774 0.37955,0.50558 0.4961,0.68455h0.16064v-1.63755h1.53081v10.6038c0,0.88589 -0.20159,1.60625 -0.60477,2.16109c-0.39688,0.55925 -0.93392,0.96857 -1.60956,1.22812c-0.67091,0.26396 -1.41899,0.39593 -2.24267,0.39593zM293.67382,183.46302c0.63626,0 1.17331,-0.14541 1.61113,-0.43623c0.43783,-0.29082 0.77171,-0.70915 1.00007,-1.25501c0.22836,-0.54585 0.34176,-1.19907 0.34176,-1.95968c0,-0.74271 -0.11182,-1.39819 -0.33546,-1.9664c-0.22364,-0.56823 -0.55437,-1.01341 -0.99219,-1.33554c-0.4394,-0.32215 -0.98117,-0.48321 -1.62531,-0.48321c-0.67091,0 -1.23001,0.17001 -1.67728,0.51005c-0.44255,0.34004 -0.77643,0.7964 -1.00007,1.3691c-0.21891,0.5727 -0.32916,1.20802 -0.32916,1.906c0,0.71586 0.11182,1.34896 0.33546,1.89928c0.22836,0.54585 0.56382,0.97537 1.00637,1.28856c0.44885,0.30873 1.00322,0.46309 1.66468,0.46309zM305.27146,185.26163c-0.93077,0 -1.74658,-0.22146 -2.44899,-0.66441c-0.69926,-0.44294 -1.24418,-1.06262 -1.63791,-1.85902c-0.389,-0.7964 -0.58429,-1.72703 -0.58429,-2.79189c0,-1.07379 0.19529,-2.01115 0.58429,-2.81202c0.39373,-0.80087 0.93865,-1.42279 1.63791,-1.86573c0.70241,-0.44294 1.51821,-0.66441 2.44899,-0.66441c0.93077,0 1.745,0.22146 2.44269,0.66441c0.70241,0.44294 1.2489,1.06486 1.63791,1.86573c0.39373,0.80087 0.59059,1.73823 0.59059,2.81202c0,1.06486 -0.19686,1.99549 -0.59059,2.79189c-0.389,0.7964 -0.9355,1.41608 -1.63791,1.85902c-0.69769,0.44294 -1.51191,0.66441 -2.44269,0.66441zM305.27146,183.83884c0.70713,0 1.28828,-0.18119 1.745,-0.54361c0.45672,-0.3624 0.79376,-0.83891 1.01267,-1.4295c0.22049,-0.59059 0.32916,-1.2304 0.32916,-1.91942c0,-0.68902 -0.10867,-1.33107 -0.32916,-1.92613c-0.21891,-0.59506 -0.55594,-1.07604 -1.01267,-1.44292c-0.45672,-0.36689 -1.03787,-0.55032 -1.745,-0.55032c-0.70713,0 -1.28828,0.18343 -1.745,0.55032c-0.45672,0.36688 -0.79376,0.84785 -1.01267,1.44292c-0.22049,0.59506 -0.32916,1.23711 -0.32916,1.92613c0,0.68902 0.10867,1.32883 0.32916,1.91942c0.21891,0.59059 0.55594,1.0671 1.01267,1.4295c0.45672,0.36242 1.03787,0.54361 1.745,0.54361zM328.78961,171.3022v13.74467h-1.61113l-7.49028,-10.79171h-0.13387v10.79171h-1.66468v-13.74467h1.61113l7.51705,10.81857h0.13387v-10.81857zM336.22633,185.26163c-0.99219,0 -1.84895,-0.21923 -2.57025,-0.6577c-0.71501,-0.44294 -1.2678,-1.06039 -1.65681,-1.85232c-0.38428,-0.7964 -0.57799,-1.72256 -0.57799,-2.77846c0,-1.05591 0.19371,-1.98653 0.57799,-2.79189c0.389,-0.80982 0.93077,-1.44068 1.62373,-1.89257c0.69769,-0.45638 1.51191,-0.68455 2.44269,-0.68455c0.53704,0 1.06779,0.08949 1.59066,0.26844c0.52445,0.17897 1.00007,0.4698 1.43002,0.87247c0.42995,0.3982 0.77171,0.92616 1.02684,1.58386c0.25514,0.65771 0.3827,1.46753 0.3827,2.42949v0.67112h-7.947v-1.3691h6.33587c0,-0.58163 -0.11654,-1.10064 -0.34963,-1.557c-0.22679,-0.45638 -0.55437,-0.81654 -0.97959,-1.08051c-0.4205,-0.26399 -0.9166,-0.39596 -1.48987,-0.39596c-0.62996,0 -1.17646,0.15659 -1.63791,0.46978c-0.45515,0.30873 -0.80635,0.7114 -1.05362,1.20804c-0.24569,0.49663 -0.36853,1.02906 -0.36853,1.59727v0.91274c0,0.77851 0.13387,1.43844 0.40318,1.97982c0.27246,0.5369 0.65044,0.94629 1.13394,1.22816c0.4835,0.2774 1.04417,0.41609 1.68358,0.41609c0.41735,0 0.79218,-0.05816 1.12764,-0.17448c0.34018,-0.12081 0.63311,-0.29977 0.88038,-0.5369c0.24569,-0.24161 0.43625,-0.54138 0.57012,-0.89931l1.52924,0.42951c-0.16064,0.51901 -0.43153,0.97537 -0.81108,1.3691c-0.38113,0.38925 -0.85045,0.6935 -1.40955,0.91274c-0.55909,0.21475 -1.18748,0.32213 -1.88674,0.32213zM343.80953,174.73837l2.46946,4.21467l2.46946,-4.21467h1.82532l-3.32779,5.15424l3.32779,5.15426h-1.82532l-2.46946,-3.99991l-2.46946,3.99991h-1.82532l3.27424,-5.15426l-3.27424,-5.15424zM357.31754,174.73837v1.34225h-5.3421v-1.34225zM353.53145,172.26861h1.58436v9.8253c0,0.44742 0.06457,0.78298 0.19529,1.00668c0.13387,0.21924 0.30396,0.36689 0.51027,0.44294c0.20946,0.0716 0.43153,0.10739 0.66304,0.10739c0.17482,0 0.31813,-0.00896 0.42995,-0.02685c0.11182,-0.02236 0.20159,-0.04027 0.26931,-0.05369l0.32128,1.42279c-0.10709,0.04027 -0.25671,0.08054 -0.44885,0.1208c-0.19371,0.04474 -0.43625,0.06712 -0.73233,0.06712c-0.44727,0 -0.8851,-0.0962 -1.31505,-0.28859c-0.42523,-0.19239 -0.77801,-0.48545 -1.05991,-0.87918c-0.27876,-0.39373 -0.41735,-0.89036 -0.41735,-1.4899z"/></g></g></svg>