<svg xmlns="http://www.w3.org/2000/svg" fill="none" viewBox="0 0 252 20" height="20" width="252">
<path fill="white" d="M12.4659 5H10.7045C10.6004 4.49337 10.4181 4.0483 10.1577 3.66477C9.90199 3.28125 9.58949 2.95928 9.22017 2.69886C8.85559 2.43371 8.45076 2.23485 8.00568 2.10227C7.56061 1.9697 7.09659 1.90341 6.61364 1.90341C5.73295 1.90341 4.93513 2.12595 4.22017 2.57102C3.50994 3.0161 2.94413 3.67188 2.52273 4.53835C2.10606 5.40483 1.89773 6.4678 1.89773 7.72727C1.89773 8.98674 2.10606 10.0497 2.52273 10.9162C2.94413 11.7827 3.50994 12.4384 4.22017 12.8835C4.93513 13.3286 5.73295 13.5511 6.61364 13.5511C7.09659 13.5511 7.56061 13.4848 8.00568 13.3523C8.45076 13.2197 8.85559 13.0232 9.22017 12.7628C9.58949 12.4976 9.90199 12.1733 10.1577 11.7898C10.4181 11.4015 10.6004 10.9564 10.7045 10.4545H12.4659C12.3333 11.1979 12.0919 11.8632 11.7415 12.4503C11.3911 13.0374 10.9555 13.5369 10.4347 13.9489C9.91383 14.3561 9.32907 14.6662 8.6804 14.8793C8.03646 15.0923 7.34754 15.1989 6.61364 15.1989C5.37311 15.1989 4.26989 14.8958 3.30398 14.2898C2.33807 13.6837 1.57813 12.822 1.02415 11.7045C0.470171 10.5871 0.193182 9.26136 0.193182 7.72727C0.193182 6.19318 0.470171 4.86742 1.02415 3.75C1.57813 2.63258 2.33807 1.77083 3.30398 1.16477C4.26989 0.558712 5.37311 0.255681 6.61364 0.255681C7.34754 0.255681 8.03646 0.362215 8.6804 0.575284C9.32907 0.788352 9.91383 1.10085 10.4347 1.51278C10.9555 1.91998 11.3911 2.41714 11.7415 3.00426C12.0919 3.58665 12.3333 4.25189 12.4659 5ZM16.761 0.454545V15H15.0849V0.454545H16.761ZM19.831 15V4.09091H21.5071V15H19.831ZM20.6832 2.27273C20.3565 2.27273 20.0748 2.16146 19.8381 1.93892C19.6061 1.71638 19.4901 1.44886 19.4901 1.13636C19.4901 0.823864 19.6061 0.556345 19.8381 0.333806C20.0748 0.111269 20.3565 0 20.6832 0C21.0099 0 21.2893 0.111269 21.5213 0.333806C21.758 0.556345 21.8764 0.823864 21.8764 1.13636C21.8764 1.44886 21.758 1.71638 21.5213 1.93892C21.2893 2.16146 21.0099 2.27273 20.6832 2.27273ZM29.0089 15.2273C27.9862 15.2273 27.1055 14.9858 26.3668 14.5028C25.6282 14.0199 25.06 13.3546 24.6623 12.5071C24.2646 11.6596 24.0657 10.6913 24.0657 9.60227C24.0657 8.49432 24.2693 7.51657 24.6765 6.66903C25.0884 5.81676 25.6613 5.15152 26.3952 4.6733C27.1339 4.19034 27.9956 3.94886 28.9805 3.94886C29.7475 3.94886 30.4388 4.09091 31.0543 4.375C31.6699 4.65909 32.1741 5.05682 32.5671 5.56818C32.9601 6.07955 33.204 6.67614 33.2987 7.35795H31.6225C31.4947 6.8608 31.2106 6.42045 30.7702 6.03693C30.3346 5.64867 29.7475 5.45455 29.0089 5.45455C28.3555 5.45455 27.7826 5.625 27.2901 5.96591C26.8024 6.30208 26.4213 6.77794 26.1467 7.39347C25.8768 8.00426 25.7418 8.72159 25.7418 9.54545C25.7418 10.3883 25.8744 11.1222 26.1396 11.7472C26.4094 12.3722 26.7882 12.8575 27.2759 13.2031C27.7683 13.5488 28.346 13.7216 29.0089 13.7216C29.4445 13.7216 29.8398 13.6458 30.195 13.4943C30.5501 13.3428 30.8507 13.125 31.0969 12.8409C31.3432 12.5568 31.5183 12.2159 31.6225 11.8182H33.2987C33.204 12.4621 32.9696 13.0421 32.5955 13.5582C32.2262 14.0696 31.7362 14.4768 31.1254 14.7798C30.5193 15.0781 29.8138 15.2273 29.0089 15.2273ZM37.3114 11.0227L37.283 8.94886H37.6239L42.3967 4.09091H44.4705L39.3853 9.23295H39.2433L37.3114 11.0227ZM35.7489 15V0.454545H37.4251V15H35.7489ZM42.6808 15L38.4194 9.60227L39.6126 8.4375L44.8114 15H42.6808ZM53.0767 15H51.2301L56.571 0.454545H58.3892L63.7301 15H61.8835L57.5369 2.75568H57.4233L53.0767 15ZM53.7585 9.31818H61.2017V10.8807H53.7585V9.31818ZM67.4446 8.4375V15H65.7685V4.09091H67.3878V5.79545H67.5298C67.7855 5.24148 68.1738 4.7964 68.6946 4.46023C69.2154 4.11932 69.8878 3.94886 70.7116 3.94886C71.4503 3.94886 72.0966 4.10038 72.6506 4.40341C73.2045 4.7017 73.6354 5.15625 73.9432 5.76705C74.2509 6.37311 74.4048 7.14015 74.4048 8.06818V15H72.7287V8.18182C72.7287 7.32481 72.5062 6.6572 72.0611 6.17898C71.616 5.69602 71.0052 5.45455 70.2287 5.45455C69.6937 5.45455 69.2154 5.57055 68.794 5.80256C68.3774 6.03456 68.0483 6.37311 67.8068 6.81818C67.5653 7.26326 67.4446 7.80303 67.4446 8.4375ZM78.1566 19.0909C77.8725 19.0909 77.6192 19.0672 77.3967 19.0199C77.1741 18.9773 77.0202 18.9347 76.935 18.892L77.3612 17.4148C77.7683 17.5189 78.1282 17.5568 78.4407 17.5284C78.7532 17.5 79.0302 17.3603 79.2717 17.1094C79.5179 16.8632 79.7428 16.4631 79.9464 15.9091L80.2589 15.0568L76.2248 4.09091H78.043L81.0543 12.7841H81.168L84.1793 4.09091H85.9975L81.3668 16.5909C81.1585 17.1544 80.9004 17.6207 80.5927 17.9901C80.2849 18.3641 79.9274 18.6411 79.5202 18.821C79.1178 19.0009 78.6632 19.0909 78.1566 19.0909ZM90.6815 15L87.3576 4.09091H89.119L91.4769 12.4432H91.5906L93.9201 4.09091H95.7099L98.011 12.4148H98.1246L100.483 4.09091H102.244L98.9201 15H97.2724L94.886 6.61932H94.7156L92.3292 15H90.6815ZM106.136 8.4375V15H104.46V0.454545H106.136V5.79545H106.278C106.534 5.23201 106.917 4.78456 107.429 4.45312C107.945 4.11695 108.631 3.94886 109.488 3.94886C110.232 3.94886 110.883 4.09801 111.441 4.39631C112 4.68987 112.433 5.14205 112.741 5.75284C113.054 6.3589 113.21 7.13068 113.21 8.06818V15H111.534V8.18182C111.534 7.31534 111.309 6.64536 110.859 6.17188C110.414 5.69366 109.796 5.45455 109.005 5.45455C108.456 5.45455 107.964 5.57055 107.528 5.80256C107.097 6.03456 106.756 6.37311 106.505 6.81818C106.259 7.26326 106.136 7.80303 106.136 8.4375ZM120.85 15.2273C119.799 15.2273 118.892 14.9953 118.13 14.5312C117.372 14.0625 116.788 13.4091 116.376 12.571C115.969 11.7282 115.765 10.7481 115.765 9.63068C115.765 8.51326 115.969 7.52841 116.376 6.67614C116.788 5.81913 117.361 5.15152 118.094 4.6733C118.833 4.19034 119.695 3.94886 120.68 3.94886C121.248 3.94886 121.809 4.04356 122.363 4.23295C122.917 4.42235 123.421 4.73011 123.876 5.15625C124.33 5.57765 124.692 6.13636 124.962 6.83239C125.232 7.52841 125.367 8.38542 125.367 9.40341V10.1136H116.958V8.66477H123.663C123.663 8.04924 123.54 7.5 123.293 7.01705C123.052 6.53409 122.706 6.15294 122.256 5.87358C121.811 5.59422 121.286 5.45455 120.68 5.45455C120.012 5.45455 119.434 5.62026 118.947 5.9517C118.464 6.27841 118.092 6.70455 117.832 7.23011C117.571 7.75568 117.441 8.31913 117.441 8.92045V9.88636C117.441 10.7102 117.583 11.4086 117.867 11.9815C118.156 12.5497 118.556 12.983 119.067 13.2812C119.579 13.5748 120.173 13.7216 120.85 13.7216C121.29 13.7216 121.688 13.66 122.043 13.5369C122.403 13.4091 122.713 13.2197 122.974 12.9688C123.234 12.7131 123.435 12.3958 123.577 12.017L125.197 12.4716C125.026 13.0208 124.74 13.5038 124.337 13.9205C123.935 14.3324 123.438 14.6544 122.846 14.8864C122.254 15.1136 121.589 15.2273 120.85 15.2273ZM127.917 15V4.09091H129.536V5.73864H129.65C129.849 5.19886 130.209 4.76089 130.729 4.42472C131.25 4.08854 131.837 3.92045 132.491 3.92045C132.614 3.92045 132.768 3.92282 132.952 3.92756C133.137 3.93229 133.277 3.93939 133.371 3.94886V5.65341C133.315 5.6392 133.184 5.6179 132.981 5.58949C132.782 5.55634 132.571 5.53977 132.349 5.53977C131.818 5.53977 131.345 5.65104 130.928 5.87358C130.516 6.09138 130.19 6.39441 129.948 6.78267C129.711 7.16619 129.593 7.60417 129.593 8.09659V15H127.917ZM139.6 15.2273C138.549 15.2273 137.642 14.9953 136.88 14.5312C136.122 14.0625 135.538 13.4091 135.126 12.571C134.719 11.7282 134.515 10.7481 134.515 9.63068C134.515 8.51326 134.719 7.52841 135.126 6.67614C135.538 5.81913 136.111 5.15152 136.844 4.6733C137.583 4.19034 138.445 3.94886 139.43 3.94886C139.998 3.94886 140.559 4.04356 141.113 4.23295C141.667 4.42235 142.171 4.73011 142.626 5.15625C143.08 5.57765 143.442 6.13636 143.712 6.83239C143.982 7.52841 144.117 8.38542 144.117 9.40341V10.1136H135.708V8.66477H142.413C142.413 8.04924 142.29 7.5 142.043 7.01705C141.802 6.53409 141.456 6.15294 141.006 5.87358C140.561 5.59422 140.036 5.45455 139.43 5.45455C138.762 5.45455 138.184 5.62026 137.697 5.9517C137.214 6.27841 136.842 6.70455 136.582 7.23011C136.321 7.75568 136.191 8.31913 136.191 8.92045V9.88636C136.191 10.7102 136.333 11.4086 136.617 11.9815C136.906 12.5497 137.306 12.983 137.817 13.2812C138.329 13.5748 138.923 13.7216 139.6 13.7216C140.04 13.7216 140.438 13.66 140.793 13.5369C141.153 13.4091 141.463 13.2197 141.724 12.9688C141.984 12.7131 142.185 12.3958 142.327 12.017L143.947 12.4716C143.776 13.0208 143.49 13.5038 143.087 13.9205C142.685 14.3324 142.188 14.6544 141.596 14.8864C141.004 15.1136 140.339 15.2273 139.6 15.2273ZM157.036 4.09091V5.51136H151.383V4.09091H157.036ZM153.031 1.47727H154.707V11.875C154.707 12.3485 154.775 12.7036 154.913 12.9403C155.055 13.1723 155.235 13.3286 155.452 13.4091C155.675 13.4848 155.909 13.5227 156.156 13.5227C156.34 13.5227 156.492 13.5133 156.61 13.4943C156.728 13.4706 156.823 13.4517 156.894 13.4375L157.235 14.9432C157.121 14.9858 156.963 15.0284 156.759 15.071C156.556 15.1184 156.298 15.142 155.985 15.142C155.512 15.142 155.048 15.0402 154.593 14.8366C154.143 14.633 153.769 14.3229 153.471 13.9062C153.177 13.4896 153.031 12.964 153.031 12.3295V1.47727ZM163.872 15.2273C162.887 15.2273 162.023 14.9929 161.28 14.5241C160.541 14.0554 159.964 13.3996 159.547 12.5568C159.135 11.714 158.929 10.7292 158.929 9.60227C158.929 8.46591 159.135 7.47396 159.547 6.62642C159.964 5.77888 160.541 5.12074 161.28 4.65199C162.023 4.18324 162.887 3.94886 163.872 3.94886C164.857 3.94886 165.719 4.18324 166.457 4.65199C167.201 5.12074 167.778 5.77888 168.19 6.62642C168.607 7.47396 168.815 8.46591 168.815 9.60227C168.815 10.7292 168.607 11.714 168.19 12.5568C167.778 13.3996 167.201 14.0554 166.457 14.5241C165.719 14.9929 164.857 15.2273 163.872 15.2273ZM163.872 13.7216C164.62 13.7216 165.236 13.5298 165.719 13.1463C166.202 12.7628 166.559 12.2585 166.791 11.6335C167.023 11.0085 167.139 10.3314 167.139 9.60227C167.139 8.87311 167.023 8.19366 166.791 7.56392C166.559 6.93419 166.202 6.42519 165.719 6.03693C165.236 5.64867 164.62 5.45455 163.872 5.45455C163.124 5.45455 162.509 5.64867 162.026 6.03693C161.543 6.42519 161.185 6.93419 160.953 7.56392C160.721 8.19366 160.605 8.87311 160.605 9.60227C160.605 10.3314 160.721 11.0085 160.953 11.6335C161.185 12.2585 161.543 12.7628 162.026 13.1463C162.509 13.5298 163.124 13.7216 163.872 13.7216ZM181.402 19.3182C180.593 19.3182 179.897 19.214 179.314 19.0057C178.732 18.8021 178.247 18.5322 177.858 18.196C177.475 17.8646 177.169 17.5095 176.942 17.1307L178.277 16.1932C178.429 16.392 178.621 16.6193 178.853 16.875C179.085 17.1354 179.402 17.3603 179.804 17.5497C180.212 17.7438 180.744 17.8409 181.402 17.8409C182.283 17.8409 183.01 17.6278 183.583 17.2017C184.156 16.7756 184.442 16.108 184.442 15.1989V12.983H184.3C184.177 13.1818 184.002 13.428 183.775 13.7216C183.552 14.0104 183.23 14.2685 182.809 14.4957C182.392 14.7183 181.828 14.8295 181.118 14.8295C180.238 14.8295 179.447 14.6212 178.746 14.2045C178.05 13.7879 177.498 13.1818 177.091 12.3864C176.689 11.5909 176.488 10.625 176.488 9.48864C176.488 8.37121 176.684 7.3982 177.077 6.5696C177.47 5.73627 178.017 5.09233 178.718 4.63778C179.418 4.1785 180.228 3.94886 181.147 3.94886C181.857 3.94886 182.42 4.06723 182.837 4.30398C183.258 4.53598 183.58 4.80114 183.803 5.09943C184.03 5.39299 184.205 5.63447 184.328 5.82386H184.499V4.09091H186.118V15.3125C186.118 16.25 185.905 17.0123 185.479 17.5994C185.058 18.1913 184.489 18.6245 183.775 18.8991C183.064 19.1785 182.274 19.3182 181.402 19.3182ZM181.346 13.3239C182.018 13.3239 182.586 13.17 183.05 12.8622C183.514 12.5545 183.867 12.1117 184.108 11.5341C184.35 10.9564 184.471 10.2652 184.471 9.46023C184.471 8.67424 184.352 7.98059 184.115 7.37926C183.879 6.77794 183.528 6.30682 183.064 5.96591C182.6 5.625 182.027 5.45455 181.346 5.45455C180.635 5.45455 180.043 5.63447 179.57 5.99432C179.101 6.35417 178.748 6.83712 178.512 7.44318C178.28 8.04924 178.164 8.72159 178.164 9.46023C178.164 10.2178 178.282 10.8878 178.519 11.4702C178.76 12.0478 179.115 12.5024 179.584 12.8338C180.058 13.1605 180.645 13.3239 181.346 13.3239ZM193.618 15.2273C192.633 15.2273 191.769 14.9929 191.026 14.5241C190.287 14.0554 189.71 13.3996 189.293 12.5568C188.881 11.714 188.675 10.7292 188.675 9.60227C188.675 8.46591 188.881 7.47396 189.293 6.62642C189.71 5.77888 190.287 5.12074 191.026 4.65199C191.769 4.18324 192.633 3.94886 193.618 3.94886C194.603 3.94886 195.465 4.18324 196.203 4.65199C196.947 5.12074 197.525 5.77888 197.936 6.62642C198.353 7.47396 198.561 8.46591 198.561 9.60227C198.561 10.7292 198.353 11.714 197.936 12.5568C197.525 13.3996 196.947 14.0554 196.203 14.5241C195.465 14.9929 194.603 15.2273 193.618 15.2273ZM193.618 13.7216C194.366 13.7216 194.982 13.5298 195.465 13.1463C195.948 12.7628 196.305 12.2585 196.537 11.6335C196.769 11.0085 196.885 10.3314 196.885 9.60227C196.885 8.87311 196.769 8.19366 196.537 7.56392C196.305 6.93419 195.948 6.42519 195.465 6.03693C194.982 5.64867 194.366 5.45455 193.618 5.45455C192.87 5.45455 192.255 5.64867 191.772 6.03693C191.289 6.42519 190.931 6.93419 190.699 7.56392C190.467 8.19366 190.351 8.87311 190.351 9.60227C190.351 10.3314 190.467 11.0085 190.699 11.6335C190.931 12.2585 191.289 12.7628 191.772 13.1463C192.255 13.5298 192.87 13.7216 193.618 13.7216ZM206.972 15V0.454545H212.058C213.071 0.454545 213.906 0.629735 214.565 0.980114C215.223 1.32576 215.713 1.79214 216.035 2.37926C216.357 2.96165 216.518 3.60795 216.518 4.31818C216.518 4.94318 216.406 5.45928 216.184 5.86648C215.966 6.27367 215.677 6.59564 215.317 6.83239C214.962 7.06913 214.576 7.24432 214.16 7.35795V7.5C214.605 7.52841 215.052 7.68466 215.502 7.96875C215.952 8.25284 216.328 8.66004 216.631 9.19034C216.934 9.72064 217.086 10.3693 217.086 11.1364C217.086 11.8655 216.92 12.5213 216.589 13.1037C216.257 13.6861 215.734 14.1477 215.019 14.4886C214.304 14.8295 213.374 15 212.228 15H206.972ZM208.734 13.4375H212.228C213.379 13.4375 214.195 13.215 214.678 12.7699C215.166 12.3201 215.41 11.7756 215.41 11.1364C215.41 10.6439 215.284 10.1894 215.033 9.77273C214.782 9.35133 214.425 9.01515 213.961 8.7642C213.497 8.50852 212.948 8.38068 212.313 8.38068H208.734V13.4375ZM208.734 6.84659H212.001C212.531 6.84659 213.009 6.74242 213.435 6.53409C213.866 6.32576 214.207 6.0322 214.458 5.65341C214.714 5.27462 214.842 4.82955 214.842 4.31818C214.842 3.67898 214.619 3.13684 214.174 2.69176C213.729 2.24195 213.023 2.01705 212.058 2.01705H208.734V6.84659ZM222.963 15.2557C222.272 15.2557 221.644 15.1255 221.081 14.8651C220.518 14.5999 220.07 14.2188 219.739 13.7216C219.407 13.2197 219.241 12.6136 219.241 11.9034C219.241 11.2784 219.365 10.7718 219.611 10.3835C219.857 9.99053 220.186 9.68276 220.598 9.46023C221.01 9.23769 221.464 9.07197 221.962 8.96307C222.464 8.84943 222.968 8.75947 223.474 8.69318C224.137 8.60795 224.675 8.54403 225.087 8.50142C225.503 8.45407 225.806 8.37595 225.996 8.26705C226.19 8.15814 226.287 7.96875 226.287 7.69886V7.64205C226.287 6.94129 226.095 6.39678 225.712 6.00852C225.333 5.62027 224.758 5.42614 223.986 5.42614C223.186 5.42614 222.558 5.60133 222.104 5.9517C221.649 6.30208 221.33 6.67614 221.145 7.07386L219.554 6.50568C219.838 5.8428 220.217 5.3267 220.69 4.95739C221.169 4.58333 221.689 4.32292 222.253 4.17614C222.821 4.02462 223.38 3.94886 223.929 3.94886C224.279 3.94886 224.682 3.99148 225.136 4.0767C225.596 4.1572 226.038 4.32528 226.464 4.58097C226.895 4.83665 227.253 5.22254 227.537 5.73864C227.821 6.25473 227.963 6.94602 227.963 7.8125V15H226.287V13.5227H226.202C226.088 13.7595 225.899 14.0128 225.634 14.2827C225.368 14.5526 225.016 14.7822 224.575 14.9716C224.135 15.161 223.598 15.2557 222.963 15.2557ZM223.219 13.75C223.882 13.75 224.44 13.6198 224.895 13.3594C225.354 13.099 225.7 12.7628 225.932 12.3509C226.169 11.9389 226.287 11.5057 226.287 11.0511V9.51705C226.216 9.60227 226.06 9.6804 225.818 9.75142C225.581 9.81771 225.307 9.87689 224.994 9.92898C224.687 9.97633 224.386 10.0189 224.092 10.0568C223.804 10.09 223.569 10.1184 223.389 10.142C222.954 10.1989 222.546 10.2912 222.168 10.419C221.794 10.5421 221.491 10.7292 221.259 10.9801C221.031 11.2263 220.918 11.5625 220.918 11.9886C220.918 12.571 221.133 13.0114 221.564 13.3097C222 13.6032 222.551 13.75 223.219 13.75ZM235.454 15.2273C234.431 15.2273 233.551 14.9858 232.812 14.5028C232.074 14.0199 231.505 13.3546 231.108 12.5071C230.71 11.6596 230.511 10.6913 230.511 9.60227C230.511 8.49432 230.715 7.51657 231.122 6.66903C231.534 5.81676 232.107 5.15152 232.841 4.6733C233.579 4.19034 234.441 3.94886 235.426 3.94886C236.193 3.94886 236.884 4.09091 237.5 4.375C238.115 4.65909 238.619 5.05682 239.012 5.56818C239.405 6.07955 239.649 6.67614 239.744 7.35795H238.068C237.94 6.8608 237.656 6.42045 237.216 6.03693C236.78 5.64867 236.193 5.45455 235.454 5.45455C234.801 5.45455 234.228 5.625 233.735 5.96591C233.248 6.30208 232.867 6.77794 232.592 7.39347C232.322 8.00426 232.187 8.72159 232.187 9.54545C232.187 10.3883 232.32 11.1222 232.585 11.7472C232.855 12.3722 233.234 12.8575 233.721 13.2031C234.214 13.5488 234.791 13.7216 235.454 13.7216C235.89 13.7216 236.285 13.6458 236.64 13.4943C236.995 13.3428 237.296 13.125 237.542 12.8409C237.788 12.5568 237.964 12.2159 238.068 11.8182H239.744C239.649 12.4621 239.415 13.0421 239.041 13.5582C238.672 14.0696 238.181 14.4768 237.571 14.7798C236.965 15.0781 236.259 15.2273 235.454 15.2273ZM243.757 11.0227L243.728 8.94886H244.069L248.842 4.09091H250.916L245.831 9.23295H245.689L243.757 11.0227ZM242.194 15V0.454545H243.87V15H242.194ZM249.126 15L244.865 9.60227L246.058 8.4375L251.257 15H249.126Z"></path>
</svg>
