<svg xmlns="http://www.w3.org/2000/svg" fill="none" viewBox="0 0 270 71" height="71" width="270">
<path fill="white" d="M19.8693 69H0.693182V3.54545H21.0199C27.2628 3.54545 32.6001 4.84517 37.032 7.4446C41.4851 10.044 44.8942 13.7727 47.2592 18.6307C49.6243 23.4886 50.8068 29.3161 50.8068 36.1129C50.8068 42.9737 49.5923 48.8651 47.1634 53.7869C44.7557 58.6875 41.2401 62.4482 36.6165 65.0689C32.0142 67.6896 26.4318 69 19.8693 69ZM6.66975 63.6307H19.5178C25.1428 63.6307 29.8516 62.5227 33.6442 60.3068C37.4368 58.0909 40.2813 54.9268 42.1776 50.8146C44.0739 46.7024 45.022 41.8018 45.022 36.1129C45.0007 30.4666 44.0632 25.6087 42.2095 21.5391C40.3771 17.4695 37.6499 14.348 34.0277 12.1747C30.4268 10.0014 25.9737 8.91477 20.6683 8.91477H6.66975V63.6307ZM83.9576 70.0227C79.3766 70.0227 75.4135 68.9574 72.0684 66.8267C68.7232 64.6747 66.1344 61.7024 64.302 57.9098C62.4909 54.0959 61.5854 49.7067 61.5854 44.7422C61.5854 39.799 62.4909 35.4098 64.302 31.5746C66.1344 27.718 68.6593 24.7031 71.8766 22.5298C75.1152 20.3352 78.8546 19.2379 83.0946 19.2379C85.758 19.2379 88.3255 19.728 90.7971 20.7081C93.2686 21.6669 95.4846 23.1477 97.4448 25.1506C99.4263 27.1321 100.992 29.6357 102.143 32.6612C103.294 35.6655 103.869 39.2237 103.869 43.3359V46.1484H65.5165V41.1307H98.052C98.052 37.9773 97.4128 35.1435 96.1344 32.6293C94.8773 30.0937 93.1195 28.0909 90.861 26.6207C88.6238 25.1506 86.035 24.4155 83.0946 24.4155C79.9838 24.4155 77.2459 25.2464 74.8809 26.9084C72.5158 28.5703 70.6621 30.7649 69.3198 33.4922C67.9988 36.2195 67.3276 39.2024 67.3063 42.4411V45.4453C67.3063 49.3445 67.9775 52.7536 69.3198 55.6726C70.6834 58.5703 72.6117 60.8182 75.1046 62.4162C77.5975 64.0142 80.5485 64.8132 83.9576 64.8132C86.28 64.8132 88.3148 64.451 90.062 63.7266C91.8304 63.0021 93.3113 62.0327 94.5044 60.8182C95.7189 59.5824 96.6351 58.2294 97.253 56.7592L102.654 58.517C101.909 60.5838 100.683 62.4908 98.9789 64.2379C97.2956 65.9851 95.1863 67.3913 92.6507 68.4567C90.1365 69.5007 87.2388 70.0227 83.9576 70.0227ZM136.604 19.9091V24.8629H112.474V19.9091H136.604ZM120.017 69V12.718C120.017 10.076 120.624 7.84943 121.838 6.03835C123.074 4.22727 124.683 2.85298 126.664 1.91548C128.646 0.97798 130.745 0.50923 132.961 0.50923C134.452 0.50923 135.688 0.637071 136.668 0.892753C137.669 1.12713 138.458 1.3615 139.033 1.59588L137.371 6.58168C136.945 6.45383 136.423 6.30469 135.805 6.13423C135.187 5.96378 134.409 5.87855 133.472 5.87855C131 5.87855 129.093 6.57102 127.751 7.95596C126.409 9.34091 125.738 11.3224 125.738 13.9006L125.706 69H120.017ZM165.784 70.0227C161.203 70.0227 157.24 68.9574 153.895 66.8267C150.549 64.6747 147.961 61.7024 146.128 57.9098C144.317 54.0959 143.412 49.7067 143.412 44.7422C143.412 39.799 144.317 35.4098 146.128 31.5746C147.961 27.718 150.485 24.7031 153.703 22.5298C156.941 20.3352 160.681 19.2379 164.921 19.2379C167.584 19.2379 170.152 19.728 172.623 20.7081C175.095 21.6669 177.311 23.1477 179.271 25.1506C181.252 27.1321 182.819 29.6357 183.969 32.6612C185.12 35.6655 185.695 39.2237 185.695 43.3359V46.1484H147.343V41.1307H179.878C179.878 37.9773 179.239 35.1435 177.961 32.6293C176.703 30.0937 174.946 28.0909 172.687 26.6207C170.45 25.1506 167.861 24.4155 164.921 24.4155C161.81 24.4155 159.072 25.2464 156.707 26.9084C154.342 28.5703 152.488 30.7649 151.146 33.4922C149.825 36.2195 149.154 39.2024 149.132 42.4411V45.4453C149.132 49.3445 149.804 52.7536 151.146 55.6726C152.51 58.5703 154.438 60.8182 156.931 62.4162C159.424 64.0142 162.375 64.8132 165.784 64.8132C168.106 64.8132 170.141 64.451 171.888 63.7266C173.657 63.0021 175.137 62.0327 176.331 60.8182C177.545 59.5824 178.461 58.2294 179.079 56.7592L184.48 58.517C183.735 60.5838 182.51 62.4908 180.805 64.2379C179.122 65.9851 177.012 67.3913 174.477 68.4567C171.963 69.5007 169.065 70.0227 165.784 70.0227ZM211.942 70.1186C208.981 70.1186 206.275 69.5433 203.824 68.3928C201.374 67.2209 199.425 65.5376 197.976 63.343C196.527 61.1271 195.802 58.4425 195.802 55.2891C195.802 52.8601 196.26 50.8146 197.177 49.1527C198.093 47.4908 199.393 46.1271 201.076 45.0618C202.759 43.9964 204.751 43.1548 207.052 42.5369C209.354 41.919 211.889 41.4396 214.659 41.0987C217.407 40.7578 219.73 40.4595 221.626 40.2038C223.544 39.9482 225.003 39.5433 226.005 38.9893C227.006 38.4354 227.507 37.5405 227.507 36.3047V35.1541C227.507 31.8089 226.506 29.1776 224.503 27.2599C222.521 25.321 219.666 24.3516 215.937 24.3516C212.4 24.3516 209.513 25.1293 207.276 26.6847C205.06 28.2401 203.505 30.0724 202.61 32.1818L197.209 30.2322C198.317 27.5476 199.851 25.4062 201.811 23.8082C203.771 22.1889 205.966 21.0277 208.395 20.3246C210.824 19.6001 213.285 19.2379 215.778 19.2379C217.653 19.2379 219.602 19.483 221.626 19.973C223.672 20.4631 225.568 21.3153 227.315 22.5298C229.062 23.723 230.479 25.3956 231.566 27.5476C232.653 29.6783 233.196 32.3842 233.196 35.6655V69H227.507V61.2337H227.155C226.474 62.6825 225.461 64.0888 224.119 65.4524C222.777 66.8161 221.094 67.9347 219.069 68.8082C217.045 69.6818 214.67 70.1186 211.942 70.1186ZM212.709 64.9091C215.735 64.9091 218.356 64.2379 220.572 62.8956C222.787 61.5533 224.492 59.7741 225.685 57.5582C226.9 55.321 227.507 52.8601 227.507 50.1754V43.0803C227.081 43.4851 226.367 43.8473 225.366 44.1669C224.385 44.4865 223.246 44.7741 221.946 45.0298C220.667 45.2642 219.389 45.4666 218.111 45.6371C216.832 45.8075 215.682 45.9567 214.659 46.0845C211.889 46.4254 209.524 46.9581 207.564 47.6825C205.604 48.407 204.101 49.4084 203.057 50.6868C202.013 51.9439 201.491 53.5632 201.491 55.5447C201.491 58.5277 202.557 60.8395 204.687 62.4801C206.818 64.0994 209.492 64.9091 212.709 64.9091ZM267.665 19.9091V24.8629H244.238V19.9091H267.665ZM251.557 8.14773H257.278V56.1839C257.278 58.2294 257.629 59.8381 258.333 61.0099C259.036 62.1605 259.952 62.9808 261.081 63.4709C262.21 63.9396 263.414 64.174 264.693 64.174C265.438 64.174 266.078 64.1314 266.61 64.0462C267.143 63.9396 267.612 63.8331 268.017 63.7266L269.231 68.8722C268.677 69.0852 267.995 69.277 267.186 69.4474C266.376 69.6392 265.374 69.7351 264.181 69.7351C262.093 69.7351 260.08 69.277 258.141 68.3608C256.223 67.4446 254.646 66.081 253.411 64.2699C252.175 62.4588 251.557 60.2109 251.557 57.5263V8.14773Z"></path>
</svg>
