<svg xmlns="http://www.w3.org/2000/svg" fill="none" viewBox="0 0 124 37" height="37" width="124">
<path fill="white" d="M19.904 32.088V36H0.392V1.608H5.024V32.088H19.904ZM38.5779 21.192C38.5779 20.2 38.4339 19.296 38.1459 18.48C37.8739 17.648 37.4659 16.936 36.9219 16.344C36.3939 15.736 35.7459 15.272 34.9779 14.952C34.2099 14.616 33.3379 14.448 32.3619 14.448C30.3139 14.448 28.6899 15.048 27.4899 16.248C26.3059 17.432 25.5699 19.08 25.2819 21.192H38.5779ZM42.0339 32.592C41.5059 33.232 40.8739 33.792 40.1379 34.272C39.4019 34.736 38.6099 35.12 37.7619 35.424C36.9299 35.728 36.0659 35.952 35.1699 36.096C34.2739 36.256 33.3859 36.336 32.5059 36.336C30.8259 36.336 29.2739 36.056 27.8499 35.496C26.4419 34.92 25.2179 34.088 24.1779 33C23.1539 31.896 22.3539 30.536 21.7779 28.92C21.2019 27.304 20.9139 25.448 20.9139 23.352C20.9139 21.656 21.1699 20.072 21.6819 18.6C22.2099 17.128 22.9619 15.856 23.9379 14.784C24.9139 13.696 26.1059 12.848 27.5139 12.24C28.9219 11.616 30.5059 11.304 32.2659 11.304C33.7219 11.304 35.0659 11.552 36.2979 12.048C37.5459 12.528 38.6179 13.232 39.5139 14.16C40.4259 15.072 41.1379 16.208 41.6499 17.568C42.1619 18.912 42.4179 20.448 42.4179 22.176C42.4179 22.848 42.3459 23.296 42.2019 23.52C42.0579 23.744 41.7859 23.856 41.3859 23.856H25.1379C25.1859 25.392 25.3939 26.728 25.7619 27.864C26.1459 29 26.6739 29.952 27.3459 30.72C28.0179 31.472 28.8179 32.04 29.7459 32.424C30.6739 32.792 31.7139 32.976 32.8659 32.976C33.9379 32.976 34.8579 32.856 35.6259 32.616C36.4099 32.36 37.0819 32.088 37.6419 31.8C38.2019 31.512 38.6659 31.248 39.0339 31.008C39.4179 30.752 39.7459 30.624 40.0179 30.624C40.3699 30.624 40.6419 30.76 40.8339 31.032L42.0339 32.592ZM67.9816 11.688L58.0696 36H54.2296L44.3176 11.688H47.7976C48.1496 11.688 48.4376 11.776 48.6616 11.952C48.8856 12.128 49.0376 12.336 49.1176 12.576L55.2856 28.224C55.4776 28.816 55.6456 29.392 55.7896 29.952C55.9336 30.512 56.0696 31.072 56.1976 31.632C56.3256 31.072 56.4616 30.512 56.6056 29.952C56.7496 29.392 56.9256 28.816 57.1336 28.224L63.3736 12.576C63.4696 12.32 63.6296 12.112 63.8536 11.952C64.0776 11.776 64.3416 11.688 64.6456 11.688H67.9816ZM87.5154 21.192C87.5154 20.2 87.3714 19.296 87.0834 18.48C86.8114 17.648 86.4034 16.936 85.8594 16.344C85.3314 15.736 84.6834 15.272 83.9154 14.952C83.1474 14.616 82.2754 14.448 81.2994 14.448C79.2514 14.448 77.6274 15.048 76.4274 16.248C75.2434 17.432 74.5074 19.08 74.2194 21.192H87.5154ZM90.9714 32.592C90.4434 33.232 89.8114 33.792 89.0754 34.272C88.3394 34.736 87.5474 35.12 86.6994 35.424C85.8674 35.728 85.0034 35.952 84.1074 36.096C83.2114 36.256 82.3234 36.336 81.4434 36.336C79.7634 36.336 78.2114 36.056 76.7874 35.496C75.3794 34.92 74.1554 34.088 73.1154 33C72.0914 31.896 71.2914 30.536 70.7154 28.92C70.1394 27.304 69.8514 25.448 69.8514 23.352C69.8514 21.656 70.1074 20.072 70.6194 18.6C71.1474 17.128 71.8994 15.856 72.8754 14.784C73.8514 13.696 75.0434 12.848 76.4514 12.24C77.8594 11.616 79.4434 11.304 81.2034 11.304C82.6594 11.304 84.0034 11.552 85.2354 12.048C86.4834 12.528 87.5554 13.232 88.4514 14.16C89.3634 15.072 90.0754 16.208 90.5874 17.568C91.0994 18.912 91.3554 20.448 91.3554 22.176C91.3554 22.848 91.2834 23.296 91.1394 23.52C90.9954 23.744 90.7234 23.856 90.3234 23.856H74.0754C74.1234 25.392 74.3314 26.728 74.6994 27.864C75.0834 29 75.6114 29.952 76.2834 30.72C76.9554 31.472 77.7554 32.04 78.6834 32.424C79.6114 32.792 80.6514 32.976 81.8034 32.976C82.8754 32.976 83.7954 32.856 84.5634 32.616C85.3474 32.36 86.0194 32.088 86.5794 31.8C87.1394 31.512 87.6034 31.248 87.9714 31.008C88.3554 30.752 88.6834 30.624 88.9554 30.624C89.3074 30.624 89.5794 30.76 89.7714 31.032L90.9714 32.592ZM101.019 0.647999V36H96.7467V0.647999H101.019ZM122.107 15.696C121.915 16.048 121.619 16.224 121.219 16.224C120.979 16.224 120.707 16.136 120.403 15.96C120.099 15.784 119.723 15.592 119.275 15.384C118.843 15.16 118.323 14.96 117.715 14.784C117.107 14.592 116.387 14.496 115.555 14.496C114.835 14.496 114.187 14.592 113.611 14.784C113.035 14.96 112.539 15.208 112.123 15.528C111.723 15.848 111.411 16.224 111.187 16.656C110.979 17.072 110.875 17.528 110.875 18.024C110.875 18.648 111.051 19.168 111.403 19.584C111.771 20 112.251 20.36 112.843 20.664C113.435 20.968 114.107 21.24 114.859 21.48C115.611 21.704 116.379 21.952 117.163 22.224C117.963 22.48 118.739 22.768 119.491 23.088C120.243 23.408 120.915 23.808 121.507 24.288C122.099 24.768 122.571 25.36 122.923 26.064C123.291 26.752 123.475 27.584 123.475 28.56C123.475 29.68 123.275 30.72 122.875 31.68C122.475 32.624 121.883 33.448 121.099 34.152C120.315 34.84 119.355 35.384 118.219 35.784C117.083 36.184 115.771 36.384 114.283 36.384C112.587 36.384 111.051 36.112 109.675 35.568C108.299 35.008 107.131 34.296 106.171 33.432L107.179 31.8C107.307 31.592 107.459 31.432 107.635 31.32C107.811 31.208 108.035 31.152 108.307 31.152C108.595 31.152 108.899 31.264 109.219 31.488C109.539 31.712 109.923 31.96 110.371 32.232C110.835 32.504 111.395 32.752 112.051 32.976C112.707 33.2 113.523 33.312 114.499 33.312C115.331 33.312 116.059 33.208 116.682 33C117.307 32.776 117.827 32.48 118.243 32.112C118.659 31.744 118.963 31.32 119.155 30.84C119.363 30.36 119.467 29.848 119.467 29.304C119.467 28.632 119.283 28.08 118.915 27.648C118.563 27.2 118.091 26.824 117.499 26.52C116.907 26.2 116.227 25.928 115.459 25.704C114.707 25.464 113.931 25.216 113.131 24.96C112.347 24.704 111.571 24.416 110.803 24.096C110.051 23.76 109.379 23.344 108.787 22.848C108.195 22.352 107.715 21.744 107.347 21.024C106.995 20.288 106.819 19.4 106.819 18.36C106.819 17.432 107.011 16.544 107.395 15.696C107.779 14.832 108.339 14.08 109.075 13.44C109.811 12.784 110.715 12.264 111.787 11.88C112.859 11.496 114.083 11.304 115.459 11.304C117.059 11.304 118.491 11.56 119.755 12.072C121.035 12.568 122.139 13.256 123.067 14.136L122.107 15.696Z"></path>
</svg>
