<svg viewBox="0,0,44.51762,42.70055" height="42.70055" width="44.51762" xmlns:xlink="http://www.w3.org/1999/xlink" xmlns="http://www.w3.org/2000/svg" version="1.1"><defs><radialGradient id="color-1" gradientUnits="userSpaceOnUse" r="9.99325" cy="179.68882" cx="231.1349"><stop stop-opacity="0.70181" stop-color="#3d3fa1" offset="0"></stop><stop stop-opacity="0" stop-color="#3d3fa1" offset="1"></stop></radialGradient><radialGradient id="color-2" gradientUnits="userSpaceOnUse" r="9.99325" cy="172.1908" cx="238.12458"><stop stop-opacity="0.70192" stop-color="#7d0e57" offset="0"></stop><stop stop-opacity="0" stop-color="#7d0e57" offset="1"></stop></radialGradient><radialGradient id="color-3" gradientUnits="userSpaceOnUse" r="9.99325" cy="177.64027" cx="248.38553"><stop stop-color="#3d3fa1" offset="0"></stop><stop stop-opacity="0" stop-color="#3d3fa1" offset="1"></stop></radialGradient><radialGradient id="color-4" gradientUnits="userSpaceOnUse" r="9.99325" cy="188.06435" cx="239.0398"><stop stop-color="#7d0e57" offset="0"></stop><stop stop-opacity="0" stop-color="#7d0e57" offset="1"></stop></radialGradient><radialGradient id="color-5" gradientUnits="userSpaceOnUse" r="9.99325" cy="172.24852" cx="233.83866"><stop stop-color="#3d3fa1" offset="0"></stop><stop stop-opacity="0" stop-color="#3d3fa1" offset="1"></stop></radialGradient><radialGradient id="color-6" gradientUnits="userSpaceOnUse" r="9.99325" cy="173.14714" cx="245.16137"><stop stop-color="#7d0e57" offset="0"></stop><stop stop-opacity="0" stop-color="#7d0e57" offset="1"></stop></radialGradient><radialGradient id="color-7" gradientUnits="userSpaceOnUse" r="9.99325" cy="185.18875" cx="245.52082"><stop stop-color="#3d3fa1" offset="0"></stop><stop stop-opacity="0" stop-color="#3d3fa1" offset="1"></stop></radialGradient><radialGradient id="color-8" gradientUnits="userSpaceOnUse" r="9.99325" cy="185.72793" cx="233.83866"><stop stop-color="#7d0e57" offset="0"></stop><stop stop-opacity="0" stop-color="#7d0e57" offset="1"></stop></radialGradient><linearGradient id="color-9" gradientUnits="userSpaceOnUse" y2="180" x2="247.69316" y1="180" x1="232.30684"><stop stop-color="#ffffff" offset="0"></stop><stop stop-color="#ffffff" offset="1"></stop></linearGradient><radialGradient id="color-10" gradientUnits="userSpaceOnUse" r="22.25881" cy="180.00001" cx="240"><stop stop-opacity="0.20192" stop-color="#ffffff" offset="0"></stop><stop stop-opacity="0" stop-color="#ffffff" offset="1"></stop></radialGradient></defs><g transform="translate(-217.74119,-158.64974)"><g style="mix-blend-mode: normal" stroke-dashoffset="0" stroke-dasharray="" stroke-miterlimit="10" stroke-linejoin="miter" stroke-linecap="butt" stroke-width="0" fill-rule="nonzero" data-paper-data="{&quot;isPaintingLayer&quot;:true}"><g stroke="#000000"><g><path fill="url(#color-1)" d="M224.60309,187.13637c-3.90261,-3.90261 -3.90261,-10.22998 0,-14.13259c3.90261,-3.90261 10.22998,-3.90261 14.13259,0c3.90261,3.90261 3.90261,10.22998 0,14.13259c-3.90261,3.90261 -10.22998,3.90261 -14.13259,0z"></path><path fill="url(#color-2)" d="M231.79647,179.18049c-3.90261,-3.90261 -3.90261,-10.22998 0,-14.13259c3.90261,-3.90261 10.22998,-3.90261 14.13259,0c3.90261,3.90261 3.90261,10.22998 0,14.13259c-3.90261,3.90261 -10.22998,3.90261 -14.13259,0z"></path><path fill="url(#color-3)" d="M241.26432,186.51402c-3.90261,-3.90261 -3.90261,-10.22998 0,-14.13259c3.90261,-3.90261 10.22998,-3.90261 14.13259,0c3.90261,3.90261 3.90261,10.22998 0,14.13259c-3.90261,3.90261 -10.22998,3.90261 -14.13259,0z"></path><path fill="url(#color-4)" d="M232.57206,194.95211c-3.90261,-3.90261 -3.90261,-10.22998 0,-14.13259c3.90261,-3.90261 10.22998,-3.90261 14.13259,0c3.90261,3.90261 3.90261,10.22998 0,14.13259c-3.90261,3.90261 -10.22998,3.90261 -14.13259,0z"></path></g><g><path fill="url(#color-5)" d="M223.89608,174.599c0,-5.51912 4.47413,-9.99325 9.99325,-9.99325c5.51912,0 9.99325,4.47413 9.99325,9.99325c0,5.51912 -4.47413,9.99325 -9.99325,9.99325c-5.51912,0 -9.99325,-4.47413 -9.99325,-9.99325z"></path><path fill="url(#color-6)" d="M234.60823,174.05982c0,-5.51912 4.47413,-9.99325 9.99325,-9.99325c5.51912,0 9.99325,4.47413 9.99325,9.99325c0,5.51912 -4.47413,9.99325 -9.99325,9.99325c-5.51912,0 -9.99325,-4.47413 -9.99325,-9.99325z"></path><path fill="url(#color-7)" d="M236.11741,185.94018c0,-5.51912 4.47413,-9.99325 9.99325,-9.99325c5.51912,0 9.99325,4.47413 9.99325,9.99325c0,5.51912 -4.47413,9.99325 -9.99325,9.99325c-5.51912,0 -9.99325,-4.47413 -9.99325,-9.99325z"></path><path fill="url(#color-8)" d="M224.00443,185.76046c0,-5.51912 4.47413,-9.99325 9.99325,-9.99325c5.51912,0 9.99325,4.47413 9.99325,9.99325c0,5.51912 -4.47413,9.99325 -9.99325,9.99325c-5.51912,0 -9.99325,-4.47413 -9.99325,-9.99325z"></path></g></g><path stroke="none" fill="url(#color-9)" d="M247.69316,180c0,4.07539 -3.44434,7.37915 -7.69316,7.37915c-4.24882,0 -7.69316,-3.30376 -7.69316,-7.37915c0,-4.07539 3.44434,-7.37915 7.69316,-7.37915c4.24882,0 7.69316,3.30376 7.69316,7.37915z"></path><path stroke="none" fill="url(#color-10)" d="M262.25881,180.00001c0,11.79141 -9.96558,21.35027 -22.25881,21.35027c-12.29319,0 -22.25881,-9.55886 -22.25881,-21.35027c0,-11.79141 9.96558,-21.35027 22.25881,-21.35027c12.29319,0 22.25881,9.55886 22.25881,21.35027z"></path></g></g></svg>