<svg version="1.1" xmlns="http://www.w3.org/2000/svg" xmlns:xlink="http://www.w3.org/1999/xlink" width="278.13131" height="75.05166" viewBox="0,0,278.13131,75.05166"><g transform="translate(-100.93434,-142.47417)"><g data-paper-data="{&quot;isPaintingLayer&quot;:true}" fill="#ffffff" fill-rule="nonzero" stroke="none" stroke-width="1" stroke-linecap="butt" stroke-linejoin="miter" stroke-miterlimit="10" stroke-dasharray="" stroke-dashoffset="0" style="mix-blend-mode: normal"><path d="M125.65912,201.65412l-24.72478,-55.83014h6.38059l23.12963,52.56009h-3.50932l23.28915,-52.56009h5.9818l-24.72478,55.83014zM162.87905,201.65412v-41.87261h5.66277v41.87261zM165.75031,150.52966c-1.16977,0 -2.15345,-0.39879 -2.95102,-1.19636c-0.79757,-0.79757 -1.19636,-1.75466 -1.19636,-2.87126c0,-1.1166 0.39879,-2.04711 1.19636,-2.79152c0.79757,-0.79757 1.78125,-1.19635 2.95102,-1.19635c1.16977,0 2.15345,0.3722 2.95102,1.1166c0.79757,0.7444 1.19636,1.6749 1.19636,2.79151c0,1.16977 -0.39879,2.15345 -1.19636,2.95102c-0.7444,0.79757 -1.72808,1.19636 -2.95102,1.19636zM201.68532,202.05291c-4.14738,0 -7.86939,-0.90392 -11.16603,-2.71175c-3.24347,-1.861 -5.7957,-4.38665 -7.65671,-7.57695c-1.861,-3.24347 -2.79151,-6.93889 -2.79151,-11.08627c0,-4.20055 0.9305,-7.89598 2.79151,-11.08627c1.861,-3.19029 4.41324,-5.68936 7.65671,-7.49719c3.29664,-1.80783 7.01865,-2.71175 11.16603,-2.71175c3.56249,0 6.77937,0.69123 9.65064,2.07369c2.87126,1.38246 5.13106,3.45615 6.77937,6.22107l-4.22714,2.87126c-1.43563,-2.12686 -3.21688,-3.69542 -5.34374,-4.70568c-2.12686,-1.01026 -4.43983,-1.51539 -6.93889,-1.51539c-2.97761,0 -5.66277,0.69123 -8.05549,2.07369c-2.39272,1.32929 -4.28031,3.21688 -5.66277,5.66277c-1.38246,2.44589 -2.07369,5.31716 -2.07369,8.61379c0,3.29664 0.69123,6.1679 2.07369,8.61379c1.38246,2.44589 3.27005,4.36007 5.66277,5.74253c2.39272,1.32929 5.07788,1.99393 8.05549,1.99393c2.49906,0 4.81203,-0.50513 6.93889,-1.51539c2.12686,-1.01026 3.90811,-2.55224 5.34374,-4.62593l4.22714,2.87126c-1.64832,2.71175 -3.90811,4.78544 -6.77937,6.22107c-2.87126,1.38246 -6.08814,2.07369 -9.65064,2.07369zM242.94645,202.05291c-3.9347,0 -6.96547,-1.06343 -9.09234,-3.19029c-2.12686,-2.12686 -3.19029,-5.13106 -3.19029,-9.01258v-39.32037h5.66277v39.00134c0,2.44589 0.61147,4.33348 1.83442,5.66277c1.27612,1.32929 3.08395,1.99393 5.4235,1.99393c2.49906,0 4.57275,-0.71782 6.22107,-2.15345l1.99393,4.06762c-1.1166,1.01026 -2.47248,1.75466 -4.06762,2.23321c-1.54198,0.47854 -3.13712,0.71782 -4.78544,0.71782zM223.16663,164.4872v-4.70568h25.92114v4.70568zM277.69656,202.05291c-4.04104,0 -7.68329,-0.90392 -10.92676,-2.71175c-3.19029,-1.861 -5.71594,-4.38665 -7.57695,-7.57695c-1.861,-3.24347 -2.79151,-6.93889 -2.79151,-11.08627c0,-4.20055 0.9305,-7.89598 2.79151,-11.08627c1.861,-3.19029 4.38665,-5.68936 7.57695,-7.49719c3.19029,-1.80783 6.83255,-2.71175 10.92676,-2.71175c4.14738,0 7.81622,0.90392 11.00651,2.71175c3.24347,1.80783 5.76911,4.3069 7.57695,7.49719c1.861,3.19029 2.79151,6.88572 2.79151,11.08627c0,4.14738 -0.9305,7.84281 -2.79151,11.08627c-1.80783,3.19029 -4.33348,5.71594 -7.57695,7.57695c-3.24347,1.80783 -6.9123,2.71175 -11.00651,2.71175zM277.69656,197.02819c3.03078,0 5.71594,-0.66464 8.05549,-1.99393c2.33955,-1.38246 4.17397,-3.29664 5.50326,-5.74253c1.38246,-2.49906 2.07369,-5.37033 2.07369,-8.61379c0,-3.29664 -0.69123,-6.1679 -2.07369,-8.61379c-1.32929,-2.44589 -3.16371,-4.33348 -5.50326,-5.66277c-2.33955,-1.38246 -4.99813,-2.07369 -7.97573,-2.07369c-2.97761,0 -5.63619,0.69123 -7.97573,2.07369c-2.33955,1.32929 -4.20055,3.21688 -5.58301,5.66277c-1.38246,2.44589 -2.07369,5.31716 -2.07369,8.61379c0,3.24347 0.69123,6.11473 2.07369,8.61379c1.38246,2.44589 3.24347,4.36007 5.58301,5.74253c2.33955,1.32929 4.97154,1.99393 7.89598,1.99393zM310.63302,201.65412v-41.87261h5.4235v11.4053l-0.5583,-1.99393c1.16977,-3.19029 3.13712,-5.6096 5.90204,-7.25792c2.76492,-1.70149 6.19449,-2.55224 10.2887,-2.55224v5.50326c-0.21269,0 -0.42537,0 -0.63806,0c-0.21269,-0.05317 -0.42537,-0.07976 -0.63806,-0.07976c-4.41324,0 -7.86939,1.35587 -10.36845,4.06762c-2.49906,2.65858 -3.7486,6.46035 -3.7486,11.4053v21.37497zM344.13194,217.52583c-1.96735,0 -3.85494,-0.31903 -5.66277,-0.95709c-1.75466,-0.63806 -3.27005,-1.59515 -4.54617,-2.87126l2.63199,-4.22714c1.06343,1.01026 2.20662,1.78125 3.42957,2.31296c1.27612,0.58489 2.68516,0.87733 4.22714,0.87733c1.861,0 3.45615,-0.53172 4.78544,-1.59515c1.38246,-1.01026 2.68516,-2.81809 3.90811,-5.4235l2.71175,-6.14132l0.63806,-0.87733l17.22759,-38.84183h5.58301l-20.97618,46.89732c-1.16977,2.71175 -2.47248,4.8652 -3.90811,6.46035c-1.38246,1.59515 -2.89785,2.71175 -4.54617,3.34981c-1.64832,0.69123 -3.48274,1.03685 -5.50326,1.03685zM355.29797,202.85048l-19.30128,-43.06897h5.90204l17.06807,38.44304z"/></g></g></svg>